<svg id="Titre" xmlns="http://www.w3.org/2000/svg" viewBox="0 0 72 64">
  <title>Delete</title>
  <g id="HIGHLIGHT">
    <path id="Path_837-2" data-name="Path 837-2" d="M52.73,47H19.27A2.27,2.27,0,0,1,17,44.73V19.27A2.27,2.27,0,0,1,19.27,17H52.73A2.27,2.27,0,0,1,55,19.27V44.73A2.27,2.27,0,0,1,52.73,47Zm-33-2.73H52.27V19.73H19.73Z" fill="#fff"/>
    <g>
      <path d="M25,37.59V26.27a.25.25,0,0,1,.29-.29h4.16a5.24,5.24,0,0,1,2.24.45,3.57,3.57,0,0,1,1.49,1.27,3.39,3.39,0,0,1,.52,1.89v4.69a3.44,3.44,0,0,1-.52,1.89,3.55,3.55,0,0,1-1.49,1.26,5.24,5.24,0,0,1-2.24.45H25.25C25.05,37.88,25,37.79,25,37.59Zm2.5-1.76h2a1.63,1.63,0,0,0,1.26-.53,2.07,2.07,0,0,0,.51-1.41V30a2,2,0,0,0-.49-1.41,1.69,1.69,0,0,0-1.3-.53h-2c-.07,0-.11,0-.11.1v7.58A.1.1,0,0,0,27.46,35.83Z" fill="#fff"/>
      <path d="M41.24,35.21a.31.31,0,0,1,.23-.12.24.24,0,0,1,.18.09l1,.93a.29.29,0,0,1,.1.21.27.27,0,0,1-.07.2,3.84,3.84,0,0,1-1.43,1.1,4.48,4.48,0,0,1-1.91.4,4.13,4.13,0,0,1-2.6-.8A3.92,3.92,0,0,1,35.33,35a5.85,5.85,0,0,1-.21-1.58,6.56,6.56,0,0,1,.19-1.67,3.61,3.61,0,0,1,1.37-2A4,4,0,0,1,39.12,29a3.54,3.54,0,0,1,2.64,1A4.91,4.91,0,0,1,43,32.75c0,.37.08.79.1,1.24a.26.26,0,0,1-.29.29H37.62a.09.09,0,0,0-.1.1,3.62,3.62,0,0,0,.12.53,1.36,1.36,0,0,0,.67.8,2.45,2.45,0,0,0,1.22.29A2.23,2.23,0,0,0,41.24,35.21Zm-3.06-3.88a1.33,1.33,0,0,0-.51.74c-.05.21-.09.36-.1.42s0,.11.09.11h2.89a.07.07,0,0,0,.08-.07,1.07,1.07,0,0,0-.07-.39,1.55,1.55,0,0,0-.52-.79,1.53,1.53,0,0,0-.95-.29A1.47,1.47,0,0,0,38.18,31.33Z" fill="#fff"/>
      <path d="M44.64,37.59V26.27a.26.26,0,0,1,.29-.29h1.82a.26.26,0,0,1,.29.29V37.59a.25.25,0,0,1-.29.29H44.93A.25.25,0,0,1,44.64,37.59Z" fill="#fff"/>
    </g>
  </g>
</svg>
