<svg id="Titre" xmlns="http://www.w3.org/2000/svg" viewBox="0 0 91 64">
  <title>Enter</title>
  <g id="HIGHLIGHT">
    <path id="Path_837-2" data-name="Path 837-2" d="M71.73,47H19.27A2.27,2.27,0,0,1,17,44.73V19.27A2.27,2.27,0,0,1,19.27,17H71.73A2.27,2.27,0,0,1,74,19.27V44.73A2.27,2.27,0,0,1,71.73,47Zm-52-2.73H71.27V19.73H19.73Z" fill="#fff"/>
    <g>
      <path d="M33.41,28H27.93a.09.09,0,0,0-.1.1v2.6a.09.09,0,0,0,.1.1h3.56a.26.26,0,0,1,.29.29v1.48a.25.25,0,0,1-.29.29H27.93a.09.09,0,0,0-.1.1v2.72a.1.1,0,0,0,.1.11h5.48c.19,0,.29.09.29.28v1.48a.25.25,0,0,1-.29.29H25.72c-.19,0-.28-.09-.28-.29V26.27c0-.19.09-.29.28-.29h7.69a.26.26,0,0,1,.29.29v1.48A.26.26,0,0,1,33.41,28Z" fill="#fff"/>
      <path d="M42,29.84a3.08,3.08,0,0,1,.83,2.26v5.49c0,.2-.09.29-.29.29H40.68c-.19,0-.28-.09-.28-.29v-5A1.61,1.61,0,0,0,40,31.49a1.28,1.28,0,0,0-1-.43,1.33,1.33,0,0,0-1,.43,1.57,1.57,0,0,0-.39,1.11v5a.25.25,0,0,1-.29.29H35.5a.25.25,0,0,1-.29-.29V29.43a.26.26,0,0,1,.29-.29h1.82a.26.26,0,0,1,.29.29v.48s0,.07,0,.08,0,0,.07,0A2.39,2.39,0,0,1,39.77,29,3,3,0,0,1,42,29.84Z" fill="#fff"/>
      <path d="M49.24,31.06H47.7a.1.1,0,0,0-.1.11v3.52a1.24,1.24,0,0,0,.23.82.93.93,0,0,0,.74.26h.48a.26.26,0,0,1,.29.29v1.46a.28.28,0,0,1-.29.31l-.94,0A3.76,3.76,0,0,1,46,37.39a2,2,0,0,1-.71-1.77V31.17c0-.07,0-.11-.1-.11h-.87c-.19,0-.29-.09-.29-.28V29.43a.26.26,0,0,1,.29-.29h.87c.07,0,.1,0,.1-.1V27.12a.26.26,0,0,1,.29-.29h1.73a.25.25,0,0,1,.29.29V29a.09.09,0,0,0,.1.1h1.54c.19,0,.28.1.28.29v1.35A.24.24,0,0,1,49.24,31.06Z" fill="#fff"/>
      <path d="M56.78,35.21a.29.29,0,0,1,.22-.12.26.26,0,0,1,.19.09l1,.93a.29.29,0,0,1,.1.21.27.27,0,0,1-.07.2,3.84,3.84,0,0,1-1.43,1.1,4.52,4.52,0,0,1-1.92.4,4.12,4.12,0,0,1-2.59-.8A3.87,3.87,0,0,1,50.87,35a5.85,5.85,0,0,1-.21-1.58,6.14,6.14,0,0,1,.19-1.67,3.61,3.61,0,0,1,1.37-2A4,4,0,0,1,54.66,29a3.54,3.54,0,0,1,2.64,1,5,5,0,0,1,1.27,2.77c0,.37.08.79.1,1.24a.26.26,0,0,1-.29.29H53.16c-.07,0-.1,0-.1.1a2.1,2.1,0,0,0,.12.53,1.36,1.36,0,0,0,.67.8,2.42,2.42,0,0,0,1.22.29A2.23,2.23,0,0,0,56.78,35.21Zm-3.07-3.88a1.31,1.31,0,0,0-.5.74c-.05.21-.09.36-.1.42s0,.11.09.11h2.89a.07.07,0,0,0,.08-.07,1.07,1.07,0,0,0-.07-.39,1.62,1.62,0,0,0-.52-.79,1.54,1.54,0,0,0-1-.29A1.51,1.51,0,0,0,53.71,31.33Z" fill="#fff"/>
      <path d="M65.4,29.23a.29.29,0,0,1,.15.36l-.32,1.78c0,.1,0,.17-.09.19a.51.51,0,0,1-.25,0,1.81,1.81,0,0,0-.49-.07l-.39,0A1.69,1.69,0,0,0,63,32,1.39,1.39,0,0,0,62.55,33v4.55a.25.25,0,0,1-.29.29H60.44c-.2,0-.29-.09-.29-.29V29.43a.25.25,0,0,1,.29-.29h1.82a.26.26,0,0,1,.29.29V30a.11.11,0,0,0,0,.09s.05,0,.08,0a2.13,2.13,0,0,1,1.84-1A1.76,1.76,0,0,1,65.4,29.23Z" fill="#fff"/>
    </g>
  </g>
</svg>
