<svg id="Titre" xmlns="http://www.w3.org/2000/svg" viewBox="0 0 131 64">
  <title>Backspace</title>
  <g id="HIGHLIGHT">
    <path id="Path_837-2" data-name="Path 837-2" d="M112.73,47H18.27A2.28,2.28,0,0,1,16,44.76V19.31A2.27,2.27,0,0,1,18.27,17h94.46A2.27,2.27,0,0,1,115,19.31V44.76A2.28,2.28,0,0,1,112.73,47Zm-94-2.73h93.54V19.76H18.73Z" fill="#fff"/>
    <g>
      <path d="M31.93,32s0,0,.05.07a2.84,2.84,0,0,1,1.59,2.76,2.91,2.91,0,0,1-1.12,2.49,4.79,4.79,0,0,1-2.94.84H25.19a.26.26,0,0,1-.29-.29V26.57a.26.26,0,0,1,.29-.29h4.19q4,0,4,3.26A2.47,2.47,0,0,1,32,32S31.93,32,31.93,32ZM27.3,28.44v2.62a.09.09,0,0,0,.1.1h2a1.93,1.93,0,0,0,1.24-.37,1.29,1.29,0,0,0,.44-1,1.31,1.31,0,0,0-.44-1,1.82,1.82,0,0,0-1.24-.38h-2A.09.09,0,0,0,27.3,28.44Zm3.44,7.27a1.59,1.59,0,0,0,0-2.2,1.84,1.84,0,0,0-1.25-.4H27.4a.1.1,0,0,0-.1.11V36a.1.1,0,0,0,.1.11h2.11A1.82,1.82,0,0,0,30.74,35.71Z" fill="#fff"/>
      <path d="M40.72,29.69a3.31,3.31,0,0,1,1.35,1,2.49,2.49,0,0,1,.48,1.48v5.68a.26.26,0,0,1-.29.29H40.44a.26.26,0,0,1-.29-.29v-.41s0-.07,0-.07,0,0-.09,0a3,3,0,0,1-2.32.87,3.24,3.24,0,0,1-2.11-.65,2.29,2.29,0,0,1-.8-1.9,2.43,2.43,0,0,1,.92-2A4.14,4.14,0,0,1,38.33,33h1.72c.07,0,.1,0,.1-.1v-.36a1.12,1.12,0,0,0-.34-.87,1.48,1.48,0,0,0-1-.32,1.87,1.87,0,0,0-.84.17.91.91,0,0,0-.45.48.32.32,0,0,1-.34.22L35.27,32a.4.4,0,0,1-.21-.07.18.18,0,0,1-.06-.17,2.31,2.31,0,0,1,.59-1.25,3.27,3.27,0,0,1,1.33-.88,5,5,0,0,1,1.82-.31A4.79,4.79,0,0,1,40.72,29.69Zm-1.08,6.45a1.21,1.21,0,0,0,.51-1v-.6c0-.07,0-.1-.1-.1h-1.2a2.19,2.19,0,0,0-1.21.29,1,1,0,0,0-.11,1.54,1.39,1.39,0,0,0,.87.26A2,2,0,0,0,39.64,36.14Z" fill="#fff"/>
      <path d="M46.7,38.32l-1-.68a3.81,3.81,0,0,1-1.42-1.87,6.38,6.38,0,0,1-.28-2,6.08,6.08,0,0,1,.28-2A3.58,3.58,0,0,1,45.7,30a4.54,4.54,0,0,1,4.75,0,3.28,3.28,0,0,1,1.37,1.71,2.17,2.17,0,0,1,.13.53v0c0,.15-.08.24-.25.28l-1.79.27h-.08a.21.21,0,0,1-.24-.2l-.05-.24a1.32,1.32,0,0,0-.53-.73,1.64,1.64,0,0,0-1-.29,1.54,1.54,0,0,0-.92.27,1.48,1.48,0,0,0-.52.75,4.07,4.07,0,0,0-.19,1.4,4.64,4.64,0,0,0,.17,1.39,1.51,1.51,0,0,0,.53.8,1.54,1.54,0,0,0,.93.29A1.57,1.57,0,0,0,49,36a1.46,1.46,0,0,0,.55-.76l0-.08a.32.32,0,0,1,.12-.16.24.24,0,0,1,.22-.08l1.78.27a.31.31,0,0,1,.2.12.27.27,0,0,1,0,.2,1.6,1.6,0,0,1-.08.39,3.17,3.17,0,0,1-1.39,1.79,4.39,4.39,0,0,1-2.37.65Z" fill="#fff"/>
      <path d="M53.35,37.89V26.57c0-.19.09-.29.28-.29h1.82a.25.25,0,0,1,.29.29v5.61s0,.07,0,.07a.06.06,0,0,0,.08,0l2.26-2.6a.53.53,0,0,1,.36-.17h2.06a.4.4,0,0,1,.18,0,.14.14,0,0,1,.07.13.28.28,0,0,1-.07.19l-2.09,2.62a.1.1,0,0,0,0,.13l2.49,5.29,0,.14c0,.13-.09.2-.26.2H59a.35.35,0,0,1-.34-.22L57,34.07c0-.07-.08-.08-.13,0l-1.06,1.34a.28.28,0,0,0,0,.12v2.38a.25.25,0,0,1-.29.29H53.63C53.44,38.18,53.35,38.08,53.35,37.89Z" fill="#fff"/>
      <path d="M63.72,38a2.93,2.93,0,0,1-1.31-.91,2,2,0,0,1-.46-1.3v-.09a.25.25,0,0,1,.29-.29H64c.2,0,.29,0,.29.1v.12a.77.77,0,0,0,.41.64,1.85,1.85,0,0,0,1,.26,1.73,1.73,0,0,0,.93-.22.65.65,0,0,0,.36-.58.48.48,0,0,0-.31-.45,4.77,4.77,0,0,0-1-.33,8.08,8.08,0,0,1-1.24-.39,5.21,5.21,0,0,1-1.75-.92A1.92,1.92,0,0,1,62,32.06a2.38,2.38,0,0,1,1-2,4.22,4.22,0,0,1,2.58-.74,5,5,0,0,1,1.92.35,2.94,2.94,0,0,1,1.27,1,2.39,2.39,0,0,1,.45,1.43.16.16,0,0,1-.08.14.33.33,0,0,1-.21.06H67.29c-.2,0-.29,0-.29-.1v-.1a.75.75,0,0,0-.38-.63,1.74,1.74,0,0,0-1-.26,1.88,1.88,0,0,0-.93.21.61.61,0,0,0-.36.56.55.55,0,0,0,.35.51,5.85,5.85,0,0,0,1.14.35,9.65,9.65,0,0,1,1,.26A5.54,5.54,0,0,1,68.7,34a2,2,0,0,1,.69,1.63,2.25,2.25,0,0,1-1,2,4.59,4.59,0,0,1-2.69.71A5.63,5.63,0,0,1,63.72,38Z" fill="#fff"/>
      <path d="M78.88,33.84A6.08,6.08,0,0,1,78.56,36a3.52,3.52,0,0,1-1.24,1.74,3.24,3.24,0,0,1-2,.64,2.37,2.37,0,0,1-1.94-.83s-.05,0-.08,0a.09.09,0,0,0,0,.08v3.5c0,.2-.09.29-.29.29H71.14a.25.25,0,0,1-.29-.29V29.73a.26.26,0,0,1,.29-.29H73a.25.25,0,0,1,.29.29v.46a.08.08,0,0,0,0,.08.08.08,0,0,0,.08-.05,2.3,2.3,0,0,1,1.94-.91,3.33,3.33,0,0,1,2,.68,3.59,3.59,0,0,1,1.23,1.81A6.3,6.3,0,0,1,78.88,33.84Zm-2.52-.05A3.58,3.58,0,0,0,76,32.13a1.34,1.34,0,0,0-1.24-.73,1.27,1.27,0,0,0-1.16.73,3.5,3.5,0,0,0-.34,1.68,3.59,3.59,0,0,0,.36,1.75,1.29,1.29,0,0,0,1.14.66A1.33,1.33,0,0,0,76,35.58,3.47,3.47,0,0,0,76.36,33.79Z" fill="#fff"/>
      <path d="M85.75,29.69a3.25,3.25,0,0,1,1.35,1,2.49,2.49,0,0,1,.48,1.48v5.68a.25.25,0,0,1-.29.29H85.48a.25.25,0,0,1-.29-.29v-.41s0-.07,0-.07-.05,0-.08,0a3,3,0,0,1-2.33.87,3.26,3.26,0,0,1-2.11-.65,2.31,2.31,0,0,1-.8-1.9,2.46,2.46,0,0,1,.92-2A4.15,4.15,0,0,1,83.37,33h1.71c.07,0,.11,0,.11-.1v-.36a1.12,1.12,0,0,0-.35-.87,1.47,1.47,0,0,0-1-.32,2,2,0,0,0-.85.17.91.91,0,0,0-.45.48.31.31,0,0,1-.34.22L80.31,32a.48.48,0,0,1-.22-.07.15.15,0,0,1,0-.17,2.22,2.22,0,0,1,.58-1.25A3.33,3.33,0,0,1,82,29.62a5.08,5.08,0,0,1,1.82-.31A4.79,4.79,0,0,1,85.75,29.69Zm-1.07,6.45a1.21,1.21,0,0,0,.51-1v-.6c0-.07,0-.1-.11-.1h-1.2a2.21,2.21,0,0,0-1.21.29.92.92,0,0,0-.44.81.89.89,0,0,0,.33.73,1.4,1.4,0,0,0,.88.26A2,2,0,0,0,84.68,36.14Z" fill="#fff"/>
      <path d="M91.73,38.32l-1-.68a3.7,3.7,0,0,1-1.42-1.87,6.09,6.09,0,0,1-.29-2,5.8,5.8,0,0,1,.29-2A3.51,3.51,0,0,1,90.73,30a4.54,4.54,0,0,1,4.75,0,3.28,3.28,0,0,1,1.37,1.71,1.79,1.79,0,0,1,.13.53v0c0,.15-.08.24-.25.28l-1.79.27h-.08a.21.21,0,0,1-.24-.2l-.05-.24a1.32,1.32,0,0,0-.53-.73,1.64,1.64,0,0,0-1-.29,1.43,1.43,0,0,0-1.44,1,4.07,4.07,0,0,0-.19,1.4,4.64,4.64,0,0,0,.17,1.39,1.46,1.46,0,0,0,1.46,1.09A1.55,1.55,0,0,0,94,36a1.41,1.41,0,0,0,.55-.76l0-.08a.32.32,0,0,1,.12-.16.25.25,0,0,1,.22-.08l1.78.27a.29.29,0,0,1,.2.12.27.27,0,0,1,0,.2,1.6,1.6,0,0,1-.08.39,3.17,3.17,0,0,1-1.39,1.79,4.34,4.34,0,0,1-2.37.65Z" fill="#fff"/>
      <path d="M104.21,35.51a.29.29,0,0,1,.22-.12.26.26,0,0,1,.19.09l1,.93a.34.34,0,0,1,.1.21.35.35,0,0,1-.07.2,4,4,0,0,1-1.44,1.1,4.63,4.63,0,0,1-1.91.4,4.1,4.1,0,0,1-2.59-.8,3.94,3.94,0,0,1-1.39-2.2,6.16,6.16,0,0,1-.2-1.58,6.58,6.58,0,0,1,.18-1.66,3.69,3.69,0,0,1,1.37-2,4,4,0,0,1,2.44-.76,3.61,3.61,0,0,1,2.65,1A5,5,0,0,1,106,33.05c.05.37.08.78.11,1.24a.26.26,0,0,1-.29.29h-5.22c-.07,0-.11,0-.11.1a3.62,3.62,0,0,0,.12.53,1.38,1.38,0,0,0,.68.8,2.41,2.41,0,0,0,1.21.28A2.21,2.21,0,0,0,104.21,35.51Zm-3.07-3.88a1.31,1.31,0,0,0-.5.74,3.58,3.58,0,0,0-.1.42c0,.07,0,.1.08.1h2.89c.06,0,.09,0,.09-.07a1.46,1.46,0,0,0-.07-.39,1.46,1.46,0,0,0-1.48-1.07A1.49,1.49,0,0,0,101.14,31.63Z" fill="#fff"/>
    </g>
  </g>
</svg>
