<svg id="Titre" xmlns="http://www.w3.org/2000/svg" viewBox="0 0 76 64">
  <title>Esc</title>
  <g id="HIGHLIGHT">
    <path id="Path_837-2" data-name="Path 837-2" d="M56.73,47H19.27A2.27,2.27,0,0,1,17,44.73V19.27A2.27,2.27,0,0,1,19.27,17H56.73A2.27,2.27,0,0,1,59,19.27V44.73A2.27,2.27,0,0,1,56.73,47Zm-37-2.73H56.27V19.73H19.73Z" fill="#fff"/>
    <g>
      <path d="M32.94,28.12H27.47c-.07,0-.1,0-.1.1v2.6c0,.07,0,.1.1.1H31a.26.26,0,0,1,.29.29v1.48A.26.26,0,0,1,31,33H27.47c-.07,0-.1,0-.1.1V35.8c0,.07,0,.1.1.1h5.47a.26.26,0,0,1,.29.29v1.48a.26.26,0,0,1-.29.29H25.26a.26.26,0,0,1-.29-.29V26.35a.26.26,0,0,1,.29-.29h7.68a.26.26,0,0,1,.29.29v1.48A.26.26,0,0,1,32.94,28.12Z" fill="#fff"/>
      <path d="M36.24,37.75a2.9,2.9,0,0,1-1.31-.9,2,2,0,0,1-.46-1.31v-.08a.26.26,0,0,1,.29-.29h1.72c.19,0,.29,0,.29.1v.12a.75.75,0,0,0,.41.64,1.81,1.81,0,0,0,1,.26,1.74,1.74,0,0,0,.94-.22.65.65,0,0,0,.35-.58.48.48,0,0,0-.3-.45,5.22,5.22,0,0,0-1-.33A12.33,12.33,0,0,1,37,34.32a5.31,5.31,0,0,1-1.75-.92,1.92,1.92,0,0,1-.64-1.56,2.38,2.38,0,0,1,1-2,4.23,4.23,0,0,1,2.59-.74,4.93,4.93,0,0,1,1.91.35,2.88,2.88,0,0,1,1.27,1,2.33,2.33,0,0,1,.46,1.43.19.19,0,0,1-.08.14.33.33,0,0,1-.21.06H39.81c-.19,0-.29,0-.29-.1v-.1a.74.74,0,0,0-.37-.63,1.78,1.78,0,0,0-1-.26,1.82,1.82,0,0,0-.92.21.61.61,0,0,0-.37.56.56.56,0,0,0,.35.51,6,6,0,0,0,1.15.35,9.46,9.46,0,0,1,.95.26,5.37,5.37,0,0,1,1.92.92,2,2,0,0,1,.7,1.63,2.28,2.28,0,0,1-1,2,4.61,4.61,0,0,1-2.69.71A5.5,5.5,0,0,1,36.24,37.75Z" fill="#fff"/>
      <path d="M45.78,38.09l-1-.67a3.79,3.79,0,0,1-1.42-1.88,6.25,6.25,0,0,1-.29-2,6.06,6.06,0,0,1,.29-2,3.56,3.56,0,0,1,1.41-1.82,4.22,4.22,0,0,1,2.37-.67,4.29,4.29,0,0,1,2.39.68,3.27,3.27,0,0,1,1.36,1.72A1.8,1.8,0,0,1,51,32v0c0,.15-.08.24-.25.28L49,32.59h-.08a.21.21,0,0,1-.24-.2l-.05-.24a1.32,1.32,0,0,0-.53-.73,1.66,1.66,0,0,0-1-.29,1.54,1.54,0,0,0-.92.27,1.52,1.52,0,0,0-.53.75,5.65,5.65,0,0,0,0,2.79,1.51,1.51,0,0,0,.53.8,1.54,1.54,0,0,0,.93.29,1.65,1.65,0,0,0,.93-.28A1.46,1.46,0,0,0,48.6,35l0-.08a.38.38,0,0,1,.12-.17.26.26,0,0,1,.22-.07l1.78.27a.31.31,0,0,1,.2.12.27.27,0,0,1,0,.2,1.24,1.24,0,0,1-.09.39,3.16,3.16,0,0,1-1.38,1.79,4.38,4.38,0,0,1-2.37.64Z" fill="#fff"/>
    </g>
  </g>
</svg>
