<svg xmlns="http://www.w3.org/2000/svg" xmlns:xlink="http://www.w3.org/1999/xlink" viewBox="0 0 64 64"><defs><clipPath id="clip-path"><path d="M-2161.16,19.19a12.5,12.5,0,0,0-6.35,6l17.65,27.66,1.3-.92L-2157,37.85c.52-.81.25-3.19,3.92-4.81s7.43.58,10.49-.78,4.81-6,4.81-6l-8-12.57c-3.06,1.35-2.68,4.41-5.74,5.76S-2156.88,17.29-2161.16,19.19Z" fill="none"/></clipPath></defs><g id="V5_OTHERS"><path id="Union_21" data-name="Union 21" d="M32.94,26.06h9.81V24c0-4.95-2.93-9-6.57-9H32.94Z" fill="#fff" fill-rule="evenodd" opacity="0.25"/><path id="Tracé_10198" data-name="Tracé 10198" d="M21.25,35.66C21.25,43,26,49,32,49s10.75-6,10.75-13.34V27.22H21.25Z" fill="#fff" fill-rule="evenodd" opacity="0.25" style="isolation:isolate"/><path id="Union_22" data-name="Union 22" d="M31.78,15V26.06H21.25V24c0-4.95,3.15-9,7.05-9Z" fill="#fff" style="isolation:isolate"/></g></svg>